<?xml version="1.0" encoding="utf-8"?>
<!-- Generator: Adobe Illustrator 16.0.0, SVG Export Plug-In . SVG Version: 6.00 Build 0)  -->
<!DOCTYPE svg PUBLIC "-//W3C//DTD SVG 1.1//EN" "http://www.w3.org/Graphics/SVG/1.1/DTD/svg11.dtd">
<svg version="1.1" id="Layer_1" xmlns="http://www.w3.org/2000/svg" xmlns:xlink="http://www.w3.org/1999/xlink" x="0px" y="0px"
	 width="720.071px" height="297.03px" viewBox="0 0 720.071 297.03" enable-background="new 0 0 720.071 297.03"
	 xml:space="preserve">
<g>
	<g>
		<g>
			<path fill="#2572B8" d="M45.738,101.794c35.167-20.269,70.333-40.537,105.5-60.805c-1.682,0-3.365,0-5.047,0
				c35.167,20.269,70.333,40.537,105.5,60.805c-0.826-1.439-1.651-2.878-2.477-4.317c0,40.537,0,81.073,0,121.61
				c0.825-1.439,1.651-2.878,2.477-4.317c-35.167,20.269-70.333,40.536-105.5,60.805c1.682,0,3.365,0,5.047,0
				c-35.167-20.269-70.333-40.536-105.5-60.805c0.826,1.439,1.651,2.878,2.477,4.317c0-40.537,0-81.073,0-121.61
				c0-6.449-10-6.449-10,0c0,40.537,0,81.073,0,121.61c0,1.754,0.953,3.439,2.477,4.317c20.026,11.542,40.053,23.084,60.079,34.626
				c12.122,6.987,24.244,13.974,36.366,20.96c2.822,1.627,5.645,3.254,8.467,4.88c2.591,1.493,4.812,0.813,7.156-0.538
				c34.66-19.976,69.319-39.952,103.979-59.928c1.523-0.878,2.477-2.563,2.477-4.317c0-40.537,0-81.073,0-121.61
				c0-1.753-0.953-3.439-2.477-4.317c-20.026-11.542-40.053-23.084-60.079-34.627c-12.122-6.986-24.244-13.973-36.366-20.959
				c-2.822-1.627-5.645-3.253-8.467-4.88c-2.591-1.493-4.812-0.813-7.156,0.539C110.01,53.208,75.351,73.184,40.691,93.16
				C35.107,96.378,40.141,105.021,45.738,101.794z"/>
		</g>
	</g>
	<path fill="#124064" d="M148.715,77.196c-43.723,0-79.167,22.167-79.167,22.167s-3,78.834,19.333,109.167
		s59.833,48.666,59.833,48.666V77.196z"/>
	<path fill="#2878B5" d="M148.414,77.196c43.723,0,79.167,22.167,79.167,22.167s3,78.834-19.333,109.167
		s-59.833,48.666-59.833,48.666V77.196z"/>
	<g>
		
			<text transform="matrix(1 0 0 1 272.8833 146.8633)" fill="#124064" font-family="'Arial-Black'" font-size="72" letter-spacing="3">BANCO</text>
	</g>
	<g>
		
			<text transform="matrix(1 0 0 1 272.8833 220.5303)" fill="#2878B5" font-family="'Arial-Black'" font-size="72" letter-spacing="3">EXEMPLO</text>
	</g>
	<g>
		<g>
			<polygon fill="#FFFFFF" points="149.215,99.196 92.215,128.196 206.215,128.196 			"/>
			<g>
				<path fill="#FFFFFF" d="M148.836,98.549c-19,9.667-38,19.333-57,29c-0.681,0.347-0.341,1.397,0.378,1.397c38,0,76,0,114,0
					c0.72,0,1.06-1.051,0.378-1.397c-19-9.667-38-19.333-57-29c-0.86-0.438-1.619,0.856-0.757,1.295c19,9.667,38,19.333,57,29
					c0.126-0.466,0.252-0.932,0.378-1.397c-38,0-76,0-114,0c0.126,0.466,0.252,0.932,0.378,1.397c19-9.667,38-19.333,57-29
					C150.456,99.405,149.696,98.111,148.836,98.549z"/>
			</g>
		</g>
		<g>
			<rect x="98.215" y="135.196" fill="#FFFFFF" width="98" height="9"/>
			<g>
				<path fill="#FFFFFF" d="M196.715,142.946c-24.784,0-49.568,0-74.352,0c-5.907,0-11.813,0-17.721,0c-1.543,0-3.086,0-4.629,0
					c-0.362,0-0.724,0-1.085,0c0.427,0,0.536,0.976,0.536-1.034c0-1.811,0-3.621,0-5.432c0-1.971,0.167-1.034-0.629-1.034
					c1.037,0,2.073,0,3.11,0c5.129,0,10.258,0,15.388,0c18.578,0,37.156,0,55.733,0c6.673,0,13.347,0,20.02,0
					c1.192,0,2.383,0,3.575,0c-0.501,0-0.696-1.208-0.696-0.251c0,1.015,0,2.029,0,3.043c0,1.819,0,3.639,0,5.458
					c0,0.967,1.5,0.967,1.5,0c0-3,0-6,0-9c0-0.409-0.341-0.75-0.75-0.75c-32.667,0-65.333,0-98,0c-0.409,0-0.75,0.341-0.75,0.75
					c0,3,0,6,0,9c0,0.409,0.341,0.75,0.75,0.75c32.667,0,65.333,0,98,0C197.682,144.446,197.682,142.946,196.715,142.946z"/>
			</g>
		</g>
		<g>
			<rect x="98.215" y="194.196" fill="#FFFFFF" width="98" height="9"/>
			<g>
				<path fill="#FFFFFF" d="M196.715,201.946c-24.784,0-49.568,0-74.352,0c-5.907,0-11.813,0-17.721,0c-1.543,0-3.086,0-4.629,0
					c-0.362,0-0.724,0-1.085,0c0.427,0,0.536,0.976,0.536-1.034c0-1.811,0-3.621,0-5.432c0-1.971,0.167-1.034-0.629-1.034
					c1.037,0,2.073,0,3.11,0c5.129,0,10.258,0,15.388,0c18.578,0,37.156,0,55.733,0c6.673,0,13.347,0,20.02,0
					c1.192,0,2.383,0,3.575,0c-0.501,0-0.696-1.207-0.696-0.252c0,1.015,0,2.029,0,3.044c0,1.819,0,3.639,0,5.458
					c0,0.967,1.5,0.967,1.5,0c0-3,0-6,0-9c0-0.409-0.341-0.75-0.75-0.75c-32.667,0-65.333,0-98,0c-0.409,0-0.75,0.341-0.75,0.75
					c0,3,0,6,0,9c0,0.409,0.341,0.75,0.75,0.75c32.667,0,65.333,0,98,0C197.682,203.446,197.682,201.946,196.715,201.946z"/>
			</g>
		</g>
		<g>
			<rect x="72.215" y="210.196" fill="#FFFFFF" width="150" height="9"/>
			<g>
				<path fill="#FFFFFF" d="M222.715,217.946c-48.285,0-96.571,0-144.856,0c-1.233,0-2.466,0-3.7,0
					c-1.924,0-0.694-0.232-0.694,0.619c0-2.913,0-5.825,0-8.738c0,0.852-1.229,0.619,0.694,0.619c9.083,0,18.167,0,27.25,0
					c31.138,0,62.276,0,93.414,0c7.583,0,15.166,0,22.748,0c1.61,0,3.22,0,4.83,0c0.12,0-0.436-1.016-0.436,1.034
					c0,2.405,0,4.811,0,7.216c0,0.967,1.5,0.967,1.5,0c0-3,0-6,0-9c0-0.409-0.341-0.75-0.75-0.75c-48.285,0-96.571,0-144.856,0
					c-1.715,0-3.429,0-5.144,0c-0.409,0-0.75,0.341-0.75,0.75c0,3,0,6,0,9c0,0.409,0.341,0.75,0.75,0.75
					c48.285,0,96.571,0,144.856,0c1.715,0,3.429,0,5.144,0C223.682,219.446,223.682,217.946,222.715,217.946z"/>
			</g>
		</g>
		<g>
			<rect x="138.215" y="151.196" fill="#FFFFFF" width="18" height="38"/>
			<g>
				<path fill="#FFFFFF" d="M156.715,187.946c-4.999,0-9.999,0-14.998,0c-0.907,0-1.814,0-2.721,0c-0.283,0,0.468,1.284,0.468,0.215
					c0-1.991,0-3.983,0-5.975c0-10.485,0-20.971,0-31.456c0,1.003-1.055,0.715,0.873,0.715c1.318,0,2.637,0,3.955,0
					c3.14,0,6.28,0,9.419,0c0.907,0,1.814,0,2.721,0c0.283,0-0.468-1.284-0.468-0.215c0,1.991,0,3.983,0,5.975
					c0,10.497,0,20.993,0,31.49c0,0.967,1.5,0.967,1.5,0c0-12.667,0-25.333,0-38c0-0.409-0.341-0.75-0.75-0.75c-6,0-12,0-18,0
					c-0.409,0-0.75,0.341-0.75,0.75c0,12.667,0,25.333,0,38c0,0.409,0.341,0.75,0.75,0.75c6,0,12,0,18,0
					C157.682,189.446,157.682,187.946,156.715,187.946z"/>
			</g>
		</g>
		<g>
			<rect x="108.215" y="151.196" fill="#FFFFFF" width="18" height="38"/>
			<g>
				<path fill="#FFFFFF" d="M126.715,187.946c-4.999,0-9.999,0-14.998,0c-0.907,0-1.814,0-2.721,0c-0.283,0,0.468,1.284,0.468,0.215
					c0-1.991,0-3.983,0-5.975c0-10.485,0-20.971,0-31.456c0,1.003-1.055,0.715,0.873,0.715c1.318,0,2.637,0,3.955,0
					c3.14,0,6.28,0,9.419,0c0.907,0,1.814,0,2.721,0c0.283,0-0.468-1.284-0.468-0.215c0,1.991,0,3.983,0,5.975
					c0,10.497,0,20.993,0,31.49c0,0.967,1.5,0.967,1.5,0c0-12.667,0-25.333,0-38c0-0.409-0.341-0.75-0.75-0.75c-6,0-12,0-18,0
					c-0.409,0-0.75,0.341-0.75,0.75c0,12.667,0,25.333,0,38c0,0.409,0.341,0.75,0.75,0.75c6,0,12,0,18,0
					C127.682,189.446,127.682,187.946,126.715,187.946z"/>
			</g>
		</g>
		<g>
			<rect x="168.215" y="151.196" fill="#FFFFFF" width="18" height="38"/>
			<g>
				<path fill="#FFFFFF" d="M186.715,187.946c-4.999,0-9.999,0-14.998,0c-0.907,0-1.814,0-2.721,0c-0.283,0,0.468,1.284,0.468,0.215
					c0-1.991,0-3.983,0-5.975c0-10.485,0-20.971,0-31.456c0,1.003-1.055,0.715,0.873,0.715c1.318,0,2.637,0,3.955,0
					c3.14,0,6.28,0,9.419,0c0.907,0,1.814,0,2.721,0c0.283,0-0.468-1.284-0.468-0.215c0,1.991,0,3.983,0,5.975
					c0,10.497,0,20.993,0,31.49c0,0.967,1.5,0.967,1.5,0c0-12.667,0-25.333,0-38c0-0.409-0.341-0.75-0.75-0.75c-6,0-12,0-18,0
					c-0.409,0-0.75,0.341-0.75,0.75c0,12.667,0,25.333,0,38c0,0.409,0.341,0.75,0.75,0.75c6,0,12,0,18,0
					C187.682,189.446,187.682,187.946,186.715,187.946z"/>
			</g>
		</g>
	</g>
</g>
</svg>
